<?xml version="1.0" standalone="no"?>
<!DOCTYPE svg PUBLIC "-//W3C//DTD SVG 20010904//EN"
 "http://www.w3.org/TR/2001/REC-SVG-20010904/DTD/svg10.dtd">
<svg version="1.0" xmlns="http://www.w3.org/2000/svg"
 width="458.000000pt" height="458.000000pt" viewBox="0 0 458.000000 458.000000"
 preserveAspectRatio="xMidYMid meet">
<metadata>
Created by potrace 1.14, written by Peter Selinger 2001-2017
</metadata>
<g transform="translate(0.000000,458.000000) scale(0.100000,-0.100000)"
fill="#000000" stroke="none">
<path d="M2287 3952 c6 -4 -84 -8 -200 -8 -117 -1 -234 -4 -262 -6 -27 -3 -70
-6 -95 -7 -34 -1 -41 -4 -30 -11 11 -8 9 -9 -10 -5 -43 10 -307 -61 -303 -81
0 -5 -3 -8 -7 -7 -37 10 -165 -92 -198 -157 -6 -14 -27 -52 -46 -85 -48 -85
-61 -155 -60 -325 1 -126 4 -155 26 -225 l25 -80 -38 -80 c-87 -184 -100 -393
-36 -569 20 -57 23 -75 15 -105 -6 -20 -13 -38 -17 -41 -15 -11 -41 -98 -41
-136 0 -22 -5 -45 -11 -51 -8 -8 -10 -54 -7 -150 5 -122 9 -149 38 -235 l33
-96 -22 -94 c-35 -146 -37 -216 -8 -328 47 -180 101 -284 201 -388 224 -236
710 -366 1233 -332 266 18 463 66 595 146 137 84 277 268 321 424 54 194 57
290 11 419 -28 80 -28 85 14 201 45 126 44 402 -1 488 -26 49 -24 79 16 170
65 150 85 326 51 449 -38 140 -39 126 9 216 65 123 91 228 90 362 -2 116 -19
189 -75 315 -28 63 -128 170 -158 170 -11 0 -20 5 -20 10 0 16 -167 89 -265
116 -152 42 -300 74 -328 72 -18 -1 -38 1 -44 5 -6 4 -80 14 -164 22 -84 9
-155 18 -158 20 -2 3 -11 -1 -19 -8 -13 -9 -14 -9 -8 1 5 9 -2 12 -26 12 -18
0 -28 -4 -21 -8z m123 -32 c0 -5 -2 -10 -4 -10 -3 0 -8 5 -11 10 -3 6 -1 10 4
10 6 0 11 -4 11 -10z m130 -10 c0 -5 -4 -10 -9 -10 -6 0 -13 5 -16 10 -3 6 1
10 9 10 9 0 16 -4 16 -10z m-500 -50 c0 -5 -2 -10 -4 -10 -3 0 -8 5 -11 10 -3
6 -1 10 4 10 6 0 11 -4 11 -10z m192 -2 c-9 -9 -15 -9 -24 0 -9 9 -7 12 12 12
19 0 21 -3 12 -12z m268 -28 c0 -5 -2 -10 -4 -10 -3 0 -8 5 -11 10 -3 6 -1 10
4 10 6 0 11 -4 11 -10z m-190 -40 c0 -5 -4 -10 -10 -10 -5 0 -10 5 -10 10 0 6
5 10 10 10 6 0 10 -4 10 -10z m-455 -10 c3 -5 1 -10 -4 -10 -6 0 -11 5 -11 10
0 6 2 10 4 10 3 0 8 -4 11 -10z m205 6 c0 -11 -19 -15 -25 -6 -3 5 1 10 9 10
9 0 16 -2 16 -4z m430 -6 c0 -5 -2 -10 -4 -10 -3 0 -8 5 -11 10 -3 6 -1 10 4
10 6 0 11 -4 11 -10z m-590 -10 c0 -5 -4 -10 -10 -10 -5 0 -10 5 -10 10 0 6 5
10 10 10 6 0 10 -4 10 -10z m660 -37 c0 -10 -4 -14 -8 -8 -4 6 -11 13 -16 18
-5 4 -2 7 7 7 10 0 17 -8 17 -17z m-550 -13 c0 -5 -4 -10 -10 -10 -5 0 -10 5
-10 10 0 6 5 10 10 10 6 0 10 -4 10 -10z m90 -4 c0 -3 -4 -8 -10 -11 -5 -3
-10 -1 -10 4 0 6 5 11 10 11 6 0 10 -2 10 -4z m-480 -16 c0 -5 -5 -10 -11 -10
-5 0 -7 5 -4 10 3 6 8 10 11 10 2 0 4 -4 4 -10z m1095 0 c3 -5 1 -10 -4 -10
-6 0 -11 5 -11 10 0 6 2 10 4 10 3 0 8 -4 11 -10z m-405 -30 c0 -5 -5 -10 -11
-10 -5 0 -7 5 -4 10 3 6 8 10 11 10 2 0 4 -4 4 -10z m-570 -19 c0 -11 -31 -24
-39 -16 -3 3 1 10 9 15 19 12 30 12 30 1z m350 -11 c0 -5 -10 -10 -22 -10 -19
0 -20 2 -8 10 19 13 30 13 30 0z m493 3 c-7 -2 -19 -2 -25 0 -7 3 -2 5 12 5
14 0 19 -2 13 -5z m-1213 -7 c0 -3 -4 -8 -10 -11 -5 -3 -10 -1 -10 4 0 6 5 11
10 11 6 0 10 -2 10 -4z m313 -14 c15 -10 24 -21 21 -25 -4 -3 -13 1 -22 10
-14 14 -17 14 -23 -3 -4 -11 -8 -14 -8 -9 -1 6 -6 3 -12 -5 -8 -12 -9 -10 -4
8 5 16 2 22 -9 22 -9 0 -16 5 -16 10 0 16 43 11 73 -8z m-458 -2 c3 -5 -1 -10
-10 -10 -9 0 -13 5 -10 10 3 6 8 10 10 10 2 0 7 -4 10 -10z m525 -24 c-14 -14
-24 0 -16 21 6 15 8 15 16 3 6 -9 5 -19 0 -24z m70 13 c0 -11 -4 -17 -10 -14
-5 3 -10 13 -10 21 0 8 5 14 10 14 6 0 10 -9 10 -21z m-330 1 c0 -5 -5 -10
-11 -10 -5 0 -7 5 -4 10 3 6 8 10 11 10 2 0 4 -4 4 -10z m630 0 c0 -5 -7 -10
-16 -10 -8 0 -12 5 -9 10 3 6 10 10 16 10 5 0 9 -4 9 -10z m1200 0 c0 -5 -7
-10 -16 -10 -8 0 -12 5 -9 10 3 6 10 10 16 10 5 0 9 -4 9 -10z m-1954 -27
c-10 -10 -19 5 -10 18 6 11 8 11 12 0 2 -7 1 -15 -2 -18z m64 18 c0 -16 -28
-20 -40 -5 -10 12 -8 14 14 14 14 0 26 -4 26 -9z m130 -1 c-19 -13 -30 -13
-30 0 0 6 10 10 23 10 18 0 19 -2 7 -10z m1145 -20 c3 -5 -1 -10 -10 -10 -9 0
-13 5 -10 10 3 6 8 10 10 10 2 0 7 -4 10 -10z m-1250 -10 c-3 -5 -12 -10 -18
-10 -7 0 -6 4 3 10 19 12 23 12 15 0z m235 -4 c0 -11 -19 -15 -25 -6 -3 5 1
10 9 10 9 0 16 -2 16 -4z m302 -28 c-15 -15 -26 -4 -18 18 5 13 9 15 18 6 9
-9 9 -15 0 -24z m68 11 c0 -6 -4 -7 -10 -4 -5 3 -10 11 -10 16 0 6 5 7 10 4 6
-3 10 -11 10 -16z m-425 1 c3 -5 -1 -10 -9 -10 -8 0 -18 5 -21 10 -3 6 1 10 9
10 8 0 18 -4 21 -10z m475 0 c0 -5 -4 -10 -10 -10 -5 0 -10 5 -10 10 0 6 5 10
10 10 6 0 10 -4 10 -10z m-620 -10 c0 -5 -5 -10 -11 -10 -5 0 -7 5 -4 10 3 6
8 10 11 10 2 0 4 -4 4 -10z m-144 -42 c-9 -5 -14 -13 -11 -19 4 -5 1 -9 -4 -9
-19 0 -12 48 7 52 23 5 29 -12 8 -24z m1029 22 c3 -5 -1 -10 -9 -10 -9 0 -16
5 -16 10 0 6 4 10 9 10 6 0 13 -4 16 -10z m-505 -14 c0 -8 6 -17 13 -20 6 -3
-1 -3 -18 1 -41 8 -49 14 -34 24 21 13 39 11 39 -5z m476 -83 c-10 -10 -19 5
-10 18 6 11 8 11 12 0 2 -7 1 -15 -2 -18z m324 -7 c0 -11 -19 -15 -25 -6 -3 5
1 10 9 10 9 0 16 -2 16 -4z m-310 -40 c0 -3 -4 -8 -10 -11 -5 -3 -10 -1 -10 4
0 6 5 11 10 11 6 0 10 -2 10 -4z m932 -31 c-23 -13 -57 -29 -75 -34 -53 -16
-106 -37 -113 -44 -4 -4 -23 -7 -42 -7 -19 0 -52 -5 -73 -12 -27 -8 -46 -8
-61 -1 -22 10 -21 11 17 21 48 13 196 49 278 67 33 7 64 18 70 24 6 6 18 11
27 11 8 0 -4 -11 -28 -25z m-1426 -40 c28 -1 55 -4 60 -7 16 -11 133 -29 177
-28 23 0 67 -4 97 -9 30 -5 96 -12 145 -15 50 -3 95 -6 100 -7 6 0 -30 -7 -80
-15 -49 -7 -100 -18 -112 -23 -18 -8 -31 -6 -58 10 -22 13 -66 25 -118 30 -77
9 -326 65 -337 76 -3 3 13 2 35 -2 22 -5 63 -9 91 -10z m1031 -51 c-3 -3 -12
-4 -19 -1 -8 3 -5 6 6 6 11 1 17 -2 13 -5z m283 -4 c0 -5 -7 -10 -16 -10 -8 0
-12 5 -9 10 3 6 10 10 16 10 5 0 9 -4 9 -10z m356 -158 c-13 -12 -17 8 -10 40
l9 33 3 -33 c2 -19 1 -36 -2 -40z m-22 -124 c-10 -33 -84 -148 -95 -148 -5 0
-4 9 3 20 7 11 16 20 20 20 5 0 8 8 8 18 0 38 40 104 68 111 2 1 0 -9 -4 -21z
m-57 -578 c-5 -52 -13 -59 -22 -20 -4 19 -2 36 5 45 19 23 21 19 17 -25z m-42
-89 c3 -5 1 -12 -5 -16 -5 -3 -10 1 -10 9 0 18 6 21 15 7z m-3 -63 c-7 -7 -12
-8 -12 -2 0 14 12 26 19 19 2 -3 -1 -11 -7 -17z m-1332 -538 c0 -5 -4 -10 -10
-10 -5 0 -10 5 -10 10 0 6 5 10 10 10 6 0 10 -4 10 -10z"/>
</g>
</svg>
