<?xml version="1.0" standalone="no"?>
<!DOCTYPE svg PUBLIC "-//W3C//DTD SVG 20010904//EN"
 "http://www.w3.org/TR/2001/REC-SVG-20010904/DTD/svg10.dtd">
<svg version="1.0" xmlns="http://www.w3.org/2000/svg"
 width="512.000000pt" height="512.000000pt" viewBox="0 0 512.000000 512.000000"
 preserveAspectRatio="xMidYMid meet">
<metadata>
Created by potrace 1.14, written by Peter Selinger 2001-2017
</metadata>
<g transform="translate(0.000000,512.000000) scale(0.100000,-0.100000)"
fill="#000000" stroke="none">
<path d="M2425 4592 c-46 -2 -234 -25 -315 -38 -19 -3 -62 -12 -95 -21 -33 -8
-67 -16 -76 -18 -42 -8 -173 -51 -252 -81 -105 -41 -301 -134 -305 -146 -2 -4
-8 -8 -13 -8 -16 0 -209 -129 -289 -193 -157 -127 -340 -326 -444 -485 -66
-100 -148 -258 -190 -367 -36 -96 -90 -289 -100 -365 -3 -25 -9 -56 -12 -70
-12 -50 -11 -396 1 -476 7 -43 16 -97 19 -119 22 -140 91 -336 174 -500 43
-84 156 -267 184 -297 7 -7 26 -30 42 -51 99 -133 322 -332 509 -455 100 -66
306 -173 377 -197 3 -1 19 -7 35 -14 104 -43 334 -109 435 -125 8 -1 38 -6 65
-10 28 -4 61 -10 75 -12 141 -22 485 -22 606 0 10 2 46 7 79 12 33 4 62 8 65
9 3 1 25 5 50 9 25 4 86 19 135 33 50 14 97 26 105 28 43 9 272 102 350 143
123 65 298 169 320 192 3 3 48 39 100 82 81 65 216 197 295 288 84 98 193 271
265 421 85 180 142 377 167 579 14 112 5 502 -12 530 -2 3 -6 23 -9 45 -15 92
-86 326 -108 353 -6 6 -8 12 -4 12 11 0 -114 238 -175 329 -67 101 -70 105
-170 220 -206 237 -500 448 -794 571 -44 18 -93 39 -110 46 -36 15 -175 57
-265 79 -199 51 -501 79 -715 67z"/>
</g>
</svg>
