<?xml version="1.0" standalone="no"?>
<!DOCTYPE svg PUBLIC "-//W3C//DTD SVG 20010904//EN"
 "http://www.w3.org/TR/2001/REC-SVG-20010904/DTD/svg10.dtd">
<svg version="1.0" xmlns="http://www.w3.org/2000/svg"
 width="512.000000pt" height="512.000000pt" viewBox="0 0 512.000000 512.000000"
 preserveAspectRatio="xMidYMid meet">
<metadata>
Created by potrace 1.14, written by Peter Selinger 2001-2017
</metadata>
<g transform="translate(0.000000,512.000000) scale(0.100000,-0.100000)"
fill="#000000" stroke="none">
<path d="M2680 4160 c0 -3 -43 -5 -95 -5 -57 0 -95 -4 -95 -10 0 -5 -5 -3 -10
5 -7 12 -10 12 -10 1 0 -7 -6 -11 -14 -8 -7 3 -19 0 -26 -6 -10 -9 -11 -9 -5
2 6 11 4 13 -11 7 -10 -5 -30 -10 -44 -11 -14 -2 -27 -4 -30 -5 -3 -1 -13 -1
-23 0 -10 1 -24 -4 -32 -10 -9 -8 -15 -8 -20 0 -3 6 -12 7 -18 3 -7 -4 -21 -8
-32 -9 -27 -2 -157 -35 -170 -43 -5 -3 -19 -6 -30 -6 -11 0 -22 -3 -25 -7 -3
-3 -17 -9 -30 -11 -56 -10 -90 -20 -90 -27 0 -3 -6 -7 -12 -7 -23 -2 -112 -38
-161 -65 -26 -15 -45 -22 -41 -16 4 6 -2 6 -15 -1 -11 -7 -21 -16 -21 -21 0
-6 -3 -9 -7 -8 -15 4 -83 -26 -83 -37 0 -5 -14 -16 -32 -24 -17 -8 -39 -22
-50 -33 -10 -10 -25 -18 -33 -18 -8 0 -19 -9 -25 -20 -6 -11 -15 -18 -19 -15
-5 3 -12 -2 -15 -11 -3 -8 -11 -12 -17 -8 -7 4 -9 3 -6 -3 4 -6 -11 -22 -33
-37 -65 -43 -153 -133 -144 -148 4 -7 4 -10 0 -6 -11 9 -46 -23 -39 -35 3 -6
1 -7 -4 -4 -6 4 -23 -11 -38 -33 -15 -22 -32 -40 -36 -40 -5 0 -9 -5 -9 -11 0
-6 -15 -31 -32 -57 -18 -26 -32 -50 -31 -53 1 -4 -8 -18 -20 -31 -12 -13 -22
-28 -23 -33 -2 -22 -17 -55 -23 -55 -4 0 -8 -6 -9 -12 -3 -35 -38 -118 -55
-129 -5 -3 -8 -9 -7 -13 1 -4 -1 -17 -5 -29 -4 -12 -8 -26 -10 -32 -5 -14 -11
-44 -20 -92 -4 -24 -11 -43 -14 -43 -4 0 -7 -17 -8 -37 -1 -48 -8 -96 -15
-108 -7 -14 -2 -314 6 -345 4 -14 7 -40 7 -57 1 -18 5 -33 11 -33 5 0 6 -5 3
-10 -4 -6 -1 -18 7 -27 11 -14 11 -16 -2 -8 -12 7 -13 6 -3 -7 7 -8 10 -18 6
-21 -3 -4 -2 -7 4 -7 5 0 10 -6 11 -12 1 -15 6 -38 21 -85 5 -18 7 -33 5 -33
-5 0 8 -28 39 -85 9 -16 22 -42 28 -57 6 -16 15 -28 20 -28 5 0 9 -7 9 -15 0
-8 5 -15 11 -15 5 0 8 -4 4 -9 -3 -6 5 -20 17 -32 13 -12 17 -18 9 -14 -9 5
-7 -1 4 -19 9 -14 15 -33 11 -41 -4 -11 -2 -14 6 -9 8 5 9 2 5 -9 -4 -10 -2
-16 6 -14 6 1 13 -8 15 -21 2 -12 8 -22 13 -22 6 0 7 -4 4 -10 -4 -6 1 -7 11
-3 12 4 15 3 10 -5 -4 -7 -2 -12 5 -12 7 0 9 -3 6 -6 -3 -4 5 -15 18 -26 14
-11 25 -24 25 -29 0 -14 38 -48 46 -41 4 4 4 -1 1 -10 -4 -10 -2 -19 3 -19 6
-1 15 -3 20 -4 6 -1 15 -3 20 -4 6 0 10 -6 10 -12 0 -5 -6 -7 -12 -3 -8 4 -10
3 -5 -2 5 -5 12 -9 15 -9 9 0 86 -58 90 -67 2 -5 13 -8 24 -8 11 0 18 -5 16
-12 -5 -15 5 -27 55 -57 20 -12 37 -26 37 -31 0 -4 14 -14 32 -21 18 -7 40
-21 50 -31 10 -10 27 -18 38 -18 11 0 20 -4 20 -10 0 -5 9 -10 19 -10 11 0 26
-7 35 -15 8 -8 19 -15 25 -15 6 0 11 -4 11 -10 0 -5 9 -10 19 -10 11 0 23 -5
27 -12 5 -7 3 -8 -6 -3 -8 5 -11 4 -7 -3 4 -5 16 -8 27 -5 11 3 20 0 20 -6 0
-6 8 -11 18 -11 10 0 23 -5 30 -12 7 -7 12 -9 12 -5 0 4 23 -2 51 -13 27 -11
69 -25 92 -30 23 -6 51 -13 62 -16 37 -10 80 -17 105 -18 14 -1 28 -5 32 -11
5 -6 8 -6 8 2 0 11 25 9 60 -5 25 -9 28 -9 76 -11 30 -1 43 -5 38 -12 -4 -8 0
-8 15 0 16 9 21 9 21 0 0 -7 3 -9 7 -6 3 4 12 2 19 -4 8 -7 14 -6 20 2 5 8 3
9 -6 4 -8 -5 -11 -4 -6 3 4 6 13 9 21 6 8 -4 12 -11 8 -18 -4 -7 -2 -7 8 1 12
10 18 10 29 0 10 -9 11 -9 6 1 -9 15 -5 15 28 2 17 -6 27 -6 32 2 4 7 3 8 -4
4 -7 -4 -12 -2 -12 4 0 7 7 9 16 6 9 -3 18 -6 20 -6 3 0 3 -4 0 -9 -4 -5 3 -7
14 -4 11 3 17 10 13 17 -4 6 1 5 10 -3 9 -7 17 -10 17 -5 0 5 5 2 10 -6 5 -8
10 -10 10 -4 0 12 49 12 69 -1 9 -5 12 -4 8 2 -4 6 6 13 23 15 16 3 32 0 34
-6 3 -7 5 -6 5 2 1 6 10 12 22 12 13 0 18 4 13 13 -5 7 -1 7 10 -2 15 -13 19
-13 27 0 5 9 9 10 9 2 0 -12 19 -11 54 3 13 5 17 4 12 -4 -3 -6 6 -5 22 3 15
8 42 15 60 17 18 1 32 7 32 12 0 5 3 6 6 3 4 -3 15 -2 25 4 14 7 19 6 19 -3 1
-10 4 -9 13 2 13 16 32 23 60 22 9 0 17 2 17 6 0 4 14 8 30 9 17 1 45 9 63 16
79 35 88 37 81 26 -8 -14 11 -4 40 20 16 13 18 13 12 1 -4 -8 -1 -7 7 3 8 10
24 19 36 20 12 1 21 5 21 10 0 4 5 5 10 2 6 -3 10 -1 10 4 0 6 8 11 18 11 10
0 23 5 30 12 7 7 12 9 12 4 0 -4 7 0 16 8 8 9 20 14 25 11 5 -4 9 -1 9 4 0 6
7 11 16 11 9 0 12 5 8 12 -4 7 -3 8 4 4 6 -4 26 1 44 11 18 9 35 17 38 18 8 1
64 38 82 54 38 35 53 46 59 44 4 -1 13 5 21 14 11 14 11 16 -1 8 -10 -5 -12
-4 -7 4 6 9 11 9 24 -1 9 -7 13 -8 9 -2 -7 12 50 61 65 56 4 -1 7 1 7 5 -4 23
3 31 22 28 14 -3 19 0 16 9 -3 8 8 20 29 29 19 9 34 21 34 26 0 6 11 21 25 35
14 14 25 29 25 34 0 6 7 13 16 16 8 3 12 11 8 17 -4 8 -3 9 4 5 6 -3 16 3 22
14 6 11 16 17 22 14 7 -4 8 -3 4 4 -4 7 -2 12 3 12 6 0 11 5 11 11 0 6 7 17
15 26 8 8 13 19 10 24 -4 5 -1 9 4 9 6 0 11 7 11 16 0 8 4 13 9 10 5 -3 14 8
21 24 7 17 16 30 21 30 5 0 9 7 9 15 0 8 5 15 10 15 6 0 10 8 10 18 0 10 3 22
7 26 4 3 8 13 9 20 1 8 16 43 33 79 17 36 31 72 31 82 0 9 5 13 11 9 8 -4 8 0
0 15 -10 17 -9 22 4 27 9 4 14 13 11 20 -3 7 -1 16 4 19 6 4 10 15 10 26 0 14
4 18 13 13 9 -6 9 -4 -1 8 -8 10 -9 19 -3 22 5 4 8 18 5 32 -3 14 -1 23 5 20
5 -3 11 5 13 19 5 22 3 24 -11 13 -12 -10 -12 -8 2 8 9 11 17 27 17 35 0 8 6
21 13 28 8 10 8 12 0 7 -8 -4 -11 2 -9 21 2 16 -1 34 -7 41 -7 9 -6 11 8 6 15
-6 16 -4 7 11 -6 12 -7 28 -1 42 5 13 4 25 -1 28 -5 3 -3 20 5 39 11 25 11 36
3 44 -9 9 -9 12 1 12 11 0 11 3 1 15 -7 8 -9 15 -5 15 4 0 2 7 -5 15 -10 12
-10 15 1 15 10 0 10 3 3 8 -7 4 -11 18 -10 32 1 14 -3 31 -8 39 -6 8 -9 15 -7
15 8 2 -11 46 -20 46 -5 0 -9 6 -9 14 0 8 -6 17 -12 19 -10 4 -10 6 0 6 9 1 9
9 -2 36 -8 19 -12 35 -9 35 3 0 0 6 -6 13 -6 8 -8 17 -4 20 3 4 1 7 -5 7 -7 0
-11 3 -11 8 4 25 -2 62 -10 57 -5 -3 -13 0 -17 6 -5 8 -3 9 6 4 9 -6 10 0 5
26 -10 49 -24 71 -38 62 -8 -4 -8 -2 1 9 9 11 10 18 2 23 -6 3 -8 11 -5 16 4
5 1 9 -4 9 -6 0 -11 7 -11 16 0 8 -4 13 -9 10 -5 -4 -8 2 -7 11 4 23 -33 95
-44 88 -5 -3 -12 0 -16 6 -4 8 -3 9 4 5 7 -4 12 -2 12 3 0 6 -4 11 -10 11 -5
0 -10 7 -10 15 0 8 -4 15 -10 15 -5 0 -10 6 -10 14 0 8 -7 17 -16 20 -9 4 -14
9 -12 12 8 8 -257 274 -272 274 -7 0 -10 3 -7 7 4 3 -11 17 -33 30 -22 13 -40
29 -40 34 0 6 -4 7 -10 4 -5 -3 -10 -1 -10 4 0 6 -16 17 -35 25 -19 8 -35 20
-35 25 0 6 -6 11 -14 11 -8 0 -22 7 -30 16 -9 8 -16 12 -16 8 0 -4 -9 1 -20
11 -11 10 -20 15 -20 11 0 -4 -13 2 -30 14 -16 12 -30 19 -30 15 0 -3 -20 6
-45 21 -25 14 -45 23 -45 18 0 -4 -8 0 -17 9 -10 8 -33 18 -51 20 -18 3 -45
13 -59 22 -14 10 -22 12 -19 6 10 -15 1 -14 -33 4 -16 8 -31 11 -35 8 -3 -4
-6 -1 -6 6 0 7 -4 9 -10 6 -5 -3 -10 -1 -10 6 0 7 -3 10 -6 7 -3 -3 -29 0 -57
8 -46 12 -96 20 -177 29 -14 1 -32 5 -40 8 -8 3 -28 6 -45 5 -16 0 -32 1 -35
2 -3 1 -32 4 -65 5 -33 2 -79 5 -103 7 -23 2 -42 1 -42 -2z"/>
</g>
</svg>
